<svg width="120" height="120" viewBox="0 0 128 128" xmlns="http://www.w3.org/2000/svg">
  <style>
    @keyframes float {
      0% { transform: translateY(0px); }
      50% { transform: translateY(-6px); }
      100% { transform: translateY(0px); }
    }
    g {
      animation: float 3s ease-in-out infinite;
    }
  </style>
  <g>
    <!-- Corpo principal -->
    <path fill="#3DDC84" d="M40 52h48v38c0 6.6-5.4 12-12 12H52c-6.6 0-12-5.4-12-12V52z"/>
    <!-- Cabeça -->
    <path fill="#3DDC84" d="M64 20c-13 0-24 10-24 22v8h48v-8c0-12-11-22-24-22z"/>
    <!-- Braços -->
    <rect x="26" y="50" width="10" height="32" rx="5" fill="#3DDC84"/>
    <rect x="92" y="50" width="10" height="32" rx="5" fill="#3DDC84"/>
    <!-- Pernas -->
    <rect x="50" y="90" width="8" height="20" rx="3" fill="#3DDC84"/>
    <rect x="70" y="90" width="8" height="20" rx="3" fill="#3DDC84"/>
    <!-- Antenas -->
    <rect x="48" y="13" width="2" height="10" rx="1" transform="rotate(-25 48 13)" fill="#3DDC84"/>
    <rect x="78" y="13" width="2" height="10" rx="1" transform="rotate(25 78 13)" fill="#3DDC84"/>
    <!-- Olhos -->
    <circle cx="50" cy="35" r="2" fill="#FFFFFF"/>
    <circle cx="78" cy="35" r="2" fill="#FFFFFF"/>
  </g>
</svg>
